# xmcd
#
# Track frame offsets:
#	150
#	14182
#	31785
#	47787
#	63777
#	81060
#	99615
#	115807
#	132167
#	146825
#	167785
#	181817
#	199422
#	215422
#	231415
#	248695
#	267252
#	283442
#	299805
#	314462
#
# Disc length: 4472 seconds
#
# Revision: 2
# Processed by: cddbd v1.5.2PL0 Copyright (c) Steve Scherf et al.
# Submitted via: audiograbber 1.83.01
#
DISCID=3b117614
DTITLE=Various Artist - THC0309 
DYEAR=2003
DGENRE=Karaoke
TTITLE0=Kenny Chesney - No Shoes, No Shirt, No Problems (vocals)
TTITLE1=Buddy Jewel - Help Pour Out The Rain ( Lacey's Song)  (vocals)
TTITLE2=Tim McGraw - Real Good Man (vocals)
TTITLE3=Amy Dolley - Love's Got An Attitude (It Is What It Is)  (vocals)
TTITLE4=Clay Walker - A Few Questions (vocals)
TTITLE5=Josh Turner - Long Black Train (vocals)
TTITLE6=Deana Carter - I'm Just A Girl (vocals)
TTITLE7=Patty Loveless - Lovin' All Night (vocals)
TTITLE8=Kenny Rogers - I'm Missing You (vocals)
TTITLE9=Dixie Chicks - Godspeed (Sweet Dreams) (vocals)
TTITLE10=Kenny Chesney - No Shoes, No Shirt, No Problems
TTITLE11=Buddy Jewel - Help Pour Out The Rain ( Lacey's Song )
TTITLE12=Tim Mcgraw - Real Good Man
TTITLE13=Amy Dolley - Love's Got An Attitude (It Is What It Is)
TTITLE14=Clay Walker - A Few Questions
TTITLE15=Josh Turner - Long Black Train
TTITLE16=Deana Carter - I'm Just A Girl
TTITLE17=Patty Loveless - Lovin' All Night
TTITLE18=Kenny Rogers - I'm Missing You
TTITLE19=Dixie Chicks - Godspeed ( Sweet Dreams )
EXTD=
EXTT0=
EXTT1=
EXTT2=
EXTT3=
EXTT4=
EXTT5=
EXTT6=
EXTT7=
EXTT8=
EXTT9=
EXTT10=
EXTT11=
EXTT12=
EXTT13=
EXTT14=
EXTT15=
EXTT16=
EXTT17=
EXTT18=
EXTT19=
PLAYORDER=
